<svg xmlns="http://www.w3.org/2000/svg" xmlns:xlink="http://www.w3.org/1999/xlink" width="500" zoomAndPan="magnify" viewBox="0 0 375 374.999991" height="500" preserveAspectRatio="xMidYMid meet" version="1.0"><path fill="rgb(42.349243%, 29.019165%, 29.019165%)" d="M 188.828125 30.183594 C 184.496094 30.195312 180.164062 30.363281 175.84375 30.695312 C 171.519531 31.027344 167.214844 31.519531 162.929688 32.167969 C 158.644531 32.820312 154.386719 33.628906 150.160156 34.59375 C 145.9375 35.5625 141.75 36.683594 137.609375 37.960938 C 133.464844 39.238281 129.375 40.667969 125.339844 42.25 C 121.304688 43.832031 117.332031 45.5625 113.421875 47.4375 C 109.515625 49.3125 105.683594 51.332031 101.925781 53.496094 C 98.164062 55.65625 94.492188 57.953125 90.90625 60.386719 C 87.316406 62.820312 83.824219 65.382812 80.429688 68.078125 C 77.03125 70.769531 73.738281 73.585938 70.550781 76.523438 C 67.363281 79.460938 64.289062 82.515625 61.328125 85.679688 C 58.367188 88.847656 55.527344 92.117188 52.808594 95.496094 C 50.089844 98.871094 47.5 102.347656 45.039062 105.914062 C 42.578125 109.484375 40.253906 113.140625 38.066406 116.882812 C 35.878906 120.625 33.832031 124.441406 31.925781 128.335938 C 30.019531 132.230469 28.261719 136.191406 26.652344 140.214844 C 25.039062 144.242188 23.578125 148.320312 22.269531 152.453125 C 20.964844 156.585938 19.808594 160.761719 18.8125 164.980469 C 17.8125 169.199219 16.972656 173.449219 16.292969 177.730469 C 15.609375 182.011719 15.085938 186.3125 14.722656 190.632812 C 14.359375 194.953125 14.15625 199.28125 14.117188 203.613281 C 14.074219 207.949219 14.195312 212.28125 14.472656 216.605469 C 14.753906 220.933594 15.195312 225.242188 15.792969 229.535156 C 16.394531 233.828125 17.152344 238.09375 18.070312 242.332031 C 18.988281 246.570312 20.058594 250.765625 21.289062 254.921875 C 22.515625 259.082031 23.898438 263.1875 25.433594 267.242188 C 26.964844 271.296875 28.648438 275.289062 30.476562 279.21875 C 32.308594 283.148438 34.28125 287.007812 36.398438 290.789062 C 38.515625 294.574219 40.769531 298.273438 43.160156 301.886719 C 45.550781 305.503906 48.074219 309.027344 50.726562 312.457031 C 53.378906 315.882812 56.15625 319.210938 59.054688 322.433594 C 61.957031 325.65625 64.972656 328.765625 68.101562 331.765625 C 68.839844 332.46875 69.609375 333.136719 70.40625 333.773438 C 71.203125 334.410156 72.027344 335.007812 72.875 335.574219 C 73.726562 336.136719 74.601562 336.660156 75.496094 337.144531 C 76.394531 337.628906 77.3125 338.074219 78.246094 338.476562 C 79.183594 338.882812 80.136719 339.242188 81.105469 339.5625 C 82.074219 339.882812 83.054688 340.15625 84.046875 340.390625 C 85.039062 340.621094 86.042969 340.808594 87.050781 340.953125 C 88.0625 341.09375 89.074219 341.191406 90.09375 341.246094 C 91.113281 341.300781 92.132812 341.308594 93.148438 341.269531 C 94.167969 341.230469 95.183594 341.148438 96.195312 341.019531 C 97.207031 340.894531 98.210938 340.722656 99.207031 340.503906 C 100.207031 340.289062 101.191406 340.027344 102.164062 339.722656 C 103.136719 339.417969 104.09375 339.070312 105.039062 338.679688 C 105.980469 338.292969 106.902344 337.863281 107.808594 337.390625 C 108.710938 336.917969 109.59375 336.40625 110.453125 335.859375 C 111.3125 335.308594 112.144531 334.722656 112.949219 334.097656 C 115.621094 332.117188 118.367188 330.246094 121.1875 328.480469 C 124.007812 326.71875 126.894531 325.074219 129.847656 323.542969 C 132.800781 322.011719 135.808594 320.597656 138.871094 319.304688 C 141.9375 318.015625 145.046875 316.847656 148.207031 315.804688 C 151.363281 314.761719 154.558594 313.84375 157.789062 313.058594 C 161.019531 312.269531 164.277344 311.609375 167.5625 311.082031 C 170.84375 310.554688 174.144531 310.15625 177.460938 309.890625 C 180.773438 309.625 184.09375 309.496094 187.421875 309.496094 C 190.746094 309.496094 194.066406 309.625 197.382812 309.890625 C 200.699219 310.15625 203.996094 310.554688 207.28125 311.082031 C 210.566406 311.609375 213.820312 312.269531 217.054688 313.058594 C 220.285156 313.84375 223.476562 314.761719 226.636719 315.804688 C 229.792969 316.847656 232.90625 318.015625 235.96875 319.304688 C 239.035156 320.597656 242.042969 322.011719 244.996094 323.542969 C 247.949219 325.074219 250.832031 326.71875 253.65625 328.480469 C 256.476562 330.246094 259.222656 332.117188 261.890625 334.097656 C 262.707031 334.742188 263.546875 335.347656 264.414062 335.917969 C 265.285156 336.484375 266.175781 337.011719 267.09375 337.5 C 268.007812 337.988281 268.945312 338.433594 269.902344 338.835938 C 270.855469 339.242188 271.828125 339.601562 272.820312 339.917969 C 273.808594 340.230469 274.808594 340.503906 275.820312 340.726562 C 276.835938 340.953125 277.855469 341.132812 278.886719 341.265625 C 279.914062 341.402344 280.949219 341.488281 281.984375 341.527344 C 283.023438 341.566406 284.058594 341.5625 285.09375 341.507812 C 286.132812 341.457031 287.164062 341.355469 288.191406 341.210938 C 289.21875 341.0625 290.238281 340.871094 291.246094 340.632812 C 292.257812 340.394531 293.253906 340.113281 294.242188 339.785156 C 295.226562 339.457031 296.191406 339.085938 297.144531 338.667969 C 298.09375 338.253906 299.027344 337.796875 299.9375 337.296875 C 300.847656 336.796875 301.730469 336.257812 302.59375 335.679688 C 303.453125 335.101562 304.289062 334.484375 305.09375 333.832031 C 305.898438 333.175781 306.675781 332.488281 307.417969 331.765625 C 310.535156 328.78125 313.535156 325.6875 316.421875 322.480469 C 319.308594 319.277344 322.074219 315.972656 324.71875 312.5625 C 327.359375 309.152344 329.875 305.652344 332.257812 302.054688 C 334.640625 298.460938 336.890625 294.785156 339 291.023438 C 341.113281 287.261719 343.082031 283.429688 344.914062 279.523438 C 346.742188 275.613281 348.421875 271.644531 349.960938 267.617188 C 351.496094 263.585938 352.878906 259.503906 354.113281 255.371094 C 355.347656 251.238281 356.425781 247.0625 357.351562 242.851562 C 358.277344 238.636719 359.046875 234.394531 359.660156 230.125 C 360.269531 225.855469 360.726562 221.570312 361.019531 217.265625 C 361.316406 212.964844 361.453125 208.65625 361.429688 204.34375 C 361.40625 200.027344 361.222656 195.722656 360.882812 191.421875 C 360.539062 187.121094 360.042969 182.839844 359.382812 178.578125 C 358.726562 174.316406 357.910156 170.082031 356.941406 165.878906 C 355.972656 161.675781 354.847656 157.515625 353.570312 153.394531 C 352.292969 149.277344 350.863281 145.210938 349.285156 141.195312 C 347.707031 137.179688 345.980469 133.230469 344.109375 129.34375 C 342.242188 125.457031 340.230469 121.644531 338.078125 117.90625 C 335.925781 114.167969 333.636719 110.515625 331.214844 106.945312 C 328.792969 103.375 326.242188 99.902344 323.5625 96.519531 C 320.886719 93.140625 318.085938 89.863281 315.164062 86.691406 C 312.242188 83.515625 309.210938 80.453125 306.0625 77.503906 C 302.914062 74.554688 299.664062 71.726562 296.304688 69.015625 C 292.949219 66.308594 289.496094 63.726562 285.949219 61.273438 C 282.402344 58.816406 278.769531 56.496094 275.050781 54.3125 C 271.332031 52.125 267.539062 50.082031 263.667969 48.175781 C 259.800781 46.269531 255.863281 44.511719 251.863281 42.894531 C 247.863281 41.28125 243.8125 39.816406 239.703125 38.5 C 235.59375 37.1875 231.445312 36.023438 227.25 35.015625 C 223.054688 34.007812 218.832031 33.15625 214.574219 32.460938 C 210.316406 31.765625 206.039062 31.226562 201.742188 30.847656 C 197.449219 30.46875 193.140625 30.246094 188.828125 30.183594 M 187.851562 292.167969 C 186.414062 292.214844 184.972656 292.226562 183.535156 292.199219 C 182.09375 292.171875 180.65625 292.109375 179.222656 292.007812 C 177.785156 291.910156 176.351562 291.773438 174.921875 291.601562 C 173.492188 291.425781 172.070312 291.21875 170.652344 290.972656 C 169.230469 290.726562 167.820312 290.445312 166.417969 290.128906 C 165.011719 289.8125 163.617188 289.460938 162.230469 289.070312 C 160.84375 288.683594 159.46875 288.257812 158.101562 287.800781 C 156.738281 287.34375 155.386719 286.851562 154.046875 286.324219 C 152.707031 285.796875 151.378906 285.234375 150.070312 284.640625 C 148.757812 284.046875 147.464844 283.417969 146.183594 282.757812 C 144.90625 282.097656 143.644531 281.40625 142.398438 280.679688 C 141.15625 279.953125 139.929688 279.199219 138.722656 278.410156 C 137.519531 277.625 136.335938 276.808594 135.171875 275.960938 C 134.007812 275.113281 132.863281 274.234375 131.746094 273.332031 C 130.625 272.425781 129.53125 271.492188 128.460938 270.53125 C 127.386719 269.566406 126.339844 268.582031 125.320312 267.566406 C 124.296875 266.550781 123.304688 265.511719 122.335938 264.445312 C 121.367188 263.378906 120.425781 262.289062 119.511719 261.179688 C 118.597656 260.066406 117.714844 258.929688 116.859375 257.769531 C 116.003906 256.613281 115.179688 255.433594 114.382812 254.234375 C 113.589844 253.03125 112.824219 251.8125 112.09375 250.574219 C 111.359375 249.335938 110.65625 248.078125 109.988281 246.800781 C 109.320312 245.527344 108.683594 244.238281 108.082031 242.929688 C 107.476562 241.621094 106.90625 240.300781 106.371094 238.964844 C 105.835938 237.628906 105.332031 236.277344 104.867188 234.917969 C 104.398438 233.554688 103.964844 232.183594 103.570312 230.800781 C 103.171875 229.414062 102.808594 228.023438 102.484375 226.621094 C 102.15625 225.21875 101.867188 223.808594 101.609375 222.390625 C 101.355469 220.972656 101.136719 219.550781 100.957031 218.125 C 100.773438 216.695312 100.628906 215.261719 100.519531 213.828125 C 100.40625 212.390625 100.335938 210.953125 100.300781 209.515625 C 100.261719 208.074219 100.261719 206.636719 100.300781 205.195312 C 100.25 203.742188 100.238281 202.289062 100.261719 200.832031 C 100.289062 199.378906 100.347656 197.925781 100.445312 196.472656 C 100.542969 195.019531 100.675781 193.570312 100.847656 192.125 C 101.015625 190.679688 101.222656 189.238281 101.464844 187.804688 C 101.707031 186.371094 101.984375 184.941406 102.296875 183.519531 C 102.609375 182.097656 102.960938 180.6875 103.34375 179.28125 C 103.726562 177.878906 104.148438 176.484375 104.601562 175.101562 C 105.054688 173.722656 105.542969 172.351562 106.066406 170.992188 C 106.589844 169.632812 107.148438 168.289062 107.738281 166.960938 C 108.328125 165.628906 108.953125 164.316406 109.609375 163.015625 C 110.265625 161.71875 110.953125 160.433594 111.671875 159.171875 C 112.394531 157.90625 113.144531 156.660156 113.929688 155.433594 C 114.710938 154.207031 115.523438 153 116.367188 151.816406 C 117.210938 150.628906 118.085938 149.464844 118.988281 148.324219 C 119.886719 147.179688 120.820312 146.0625 121.777344 144.964844 C 122.734375 143.871094 123.71875 142.800781 124.730469 141.753906 C 125.742188 140.707031 126.78125 139.6875 127.84375 138.691406 C 128.90625 137.699219 129.992188 136.730469 131.105469 135.792969 C 132.214844 134.851562 133.351562 133.941406 134.507812 133.058594 C 135.664062 132.175781 136.84375 131.324219 138.042969 130.5 C 139.242188 129.675781 140.460938 128.882812 141.703125 128.121094 C 142.941406 127.355469 144.199219 126.625 145.476562 125.925781 C 146.75 125.226562 148.042969 124.558594 149.355469 123.925781 C 150.664062 123.289062 151.988281 122.6875 153.328125 122.121094 C 154.667969 121.554688 156.023438 121.019531 157.386719 120.519531 C 158.753906 120.019531 160.132812 119.550781 161.523438 119.121094 C 162.914062 118.691406 164.3125 118.292969 165.722656 117.933594 C 167.132812 117.570312 168.550781 117.246094 169.976562 116.957031 C 171.402344 116.667969 172.835938 116.414062 174.273438 116.195312 C 175.714844 115.976562 177.15625 115.792969 178.605469 115.648438 C 180.054688 115.503906 181.503906 115.394531 182.957031 115.320312 C 184.410156 115.25 185.867188 115.210938 187.320312 115.210938 C 188.777344 115.210938 190.230469 115.25 191.683594 115.320312 C 193.136719 115.394531 194.589844 115.503906 196.035156 115.648438 C 197.484375 115.792969 198.929688 115.976562 200.367188 116.195312 C 201.804688 116.414062 203.238281 116.667969 204.664062 116.957031 C 206.089844 117.246094 207.507812 117.570312 208.917969 117.933594 C 210.328125 118.292969 211.730469 118.691406 213.117188 119.121094 C 214.507812 119.550781 215.886719 120.019531 217.253906 120.519531 C 218.621094 121.019531 219.972656 121.554688 221.3125 122.121094 C 222.652344 122.6875 223.976562 123.289062 225.289062 123.925781 C 226.597656 124.558594 227.890625 125.226562 229.167969 125.925781 C 230.441406 126.625 231.699219 127.355469 232.941406 128.121094 C 234.179688 128.882812 235.398438 129.675781 236.601562 130.5 C 237.800781 131.324219 238.976562 132.175781 240.136719 133.058594 C 241.292969 133.941406 242.425781 134.851562 243.539062 135.792969 C 244.648438 136.730469 245.734375 137.699219 246.800781 138.691406 C 247.863281 139.6875 248.898438 140.707031 249.910156 141.753906 C 250.921875 142.800781 251.90625 143.871094 252.867188 144.964844 C 253.824219 146.0625 254.753906 147.179688 255.65625 148.324219 C 256.558594 149.464844 257.429688 150.628906 258.273438 151.816406 C 259.117188 153 259.929688 154.207031 260.714844 155.433594 C 261.496094 156.660156 262.25 157.90625 262.96875 159.171875 C 263.6875 160.433594 264.378906 161.71875 265.035156 163.015625 C 265.691406 164.316406 266.3125 165.628906 266.902344 166.960938 C 267.496094 168.289062 268.050781 169.632812 268.574219 170.992188 C 269.097656 172.351562 269.585938 173.722656 270.039062 175.101562 C 270.496094 176.484375 270.914062 177.878906 271.296875 179.28125 C 271.683594 180.6875 272.03125 182.097656 272.34375 183.519531 C 272.660156 184.941406 272.9375 186.371094 273.179688 187.804688 C 273.421875 189.238281 273.625 190.679688 273.796875 192.125 C 273.964844 193.570312 274.097656 195.019531 274.195312 196.472656 C 274.292969 197.925781 274.355469 199.378906 274.378906 200.832031 C 274.402344 202.289062 274.390625 203.742188 274.339844 205.195312 C 274.378906 206.628906 274.382812 208.0625 274.347656 209.496094 C 274.3125 210.929688 274.242188 212.363281 274.136719 213.792969 C 274.027344 215.222656 273.882812 216.648438 273.703125 218.074219 C 273.527344 219.496094 273.308594 220.914062 273.058594 222.324219 C 272.808594 223.734375 272.519531 225.140625 272.195312 226.539062 C 271.875 227.933594 271.515625 229.324219 271.121094 230.703125 C 270.730469 232.082031 270.300781 233.449219 269.839844 234.804688 C 269.375 236.164062 268.878906 237.507812 268.347656 238.839844 C 267.816406 240.171875 267.253906 241.492188 266.65625 242.792969 C 266.058594 244.097656 265.425781 245.382812 264.761719 246.65625 C 264.101562 247.925781 263.40625 249.179688 262.679688 250.417969 C 261.949219 251.652344 261.191406 252.871094 260.40625 254.066406 C 259.617188 255.265625 258.796875 256.441406 257.949219 257.597656 C 257.101562 258.753906 256.222656 259.886719 255.316406 261 C 254.410156 262.113281 253.476562 263.199219 252.515625 264.261719 C 251.554688 265.328125 250.566406 266.367188 249.554688 267.378906 C 248.539062 268.394531 247.5 269.382812 246.4375 270.34375 C 245.371094 271.304688 244.285156 272.238281 243.171875 273.144531 C 242.0625 274.050781 240.925781 274.925781 239.769531 275.777344 C 238.613281 276.625 237.4375 277.441406 236.242188 278.230469 C 235.042969 279.019531 233.824219 279.777344 232.589844 280.503906 C 231.355469 281.230469 230.101562 281.925781 228.828125 282.589844 C 227.558594 283.253906 226.269531 283.882812 224.964844 284.484375 C 223.664062 285.082031 222.34375 285.644531 221.011719 286.175781 C 219.679688 286.707031 218.335938 287.203125 216.980469 287.667969 C 215.621094 288.128906 214.253906 288.558594 212.875 288.949219 C 211.496094 289.34375 210.105469 289.703125 208.710938 290.023438 C 207.3125 290.347656 205.910156 290.632812 204.496094 290.886719 C 203.085938 291.136719 201.667969 291.351562 200.246094 291.53125 C 198.820312 291.710938 197.394531 291.855469 195.964844 291.960938 C 194.535156 292.070312 193.105469 292.140625 191.671875 292.175781 C 190.238281 292.210938 188.804688 292.207031 187.371094 292.167969 " fill-opacity="1" fill-rule="evenodd"/></svg>